<svg width="797" height="1146" xmlns="http://www.w3.org/2000/svg" xmlns:xlink="http://www.w3.org/1999/xlink" xml:space="preserve" overflow="hidden"><g transform="translate(-1118 -366)"><g><path d="M1225.87 414.011C1422.77 414.011 1619.67 414.011 1816.57 414.011 1816.57 468.149 1816.57 522.287 1816.57 576.426 1679.11 576.426 1541.64 576.426 1404.17 576.426 1397.71 656.232 1391.25 736.039 1384.79 815.846 1442.67 809.779 1480.91 806.746 1499.52 806.746 1610.63 806.746 1699.91 834.281 1767.35 889.353 1834.79 944.424 1868.51 1017.7 1868.51 1109.17 1868.51 1219.78 1829.75 1306.36 1752.23 1368.89 1674.71 1431.43 1568.77 1462.7 1434.4 1462.7 1321.74 1462.7 1232.07 1446.37 1165.41 1413.7 1165.41 1354.66 1165.41 1295.62 1165.41 1236.58 1200.03 1260.39 1239.44 1278.59 1283.62 1291.19 1327.81 1303.79 1371.09 1310.09 1413.47 1310.09 1486.34 1310.09 1543.7 1294.22 1585.56 1262.49 1627.43 1230.75 1648.36 1186.65 1648.36 1130.17 1648.36 1071.37 1626.26 1028.55 1582.08 1001.71 1537.89 974.877 1470.06 961.459 1378.59 961.459 1316.57 961.459 1251.45 966.359 1183.23 976.16 1197.45 788.777 1211.66 601.394 1225.87 414.011Z" stroke="#595959" stroke-width="92" stroke-linecap="butt" stroke-linejoin="round" stroke-miterlimit="10" stroke-opacity="1" fill="#000000" fill-rule="evenodd" fill-opacity="1"/><text fill="#000000" fill-opacity="0" font-family="Arial,Arial_MSFontService,sans-serif" font-size="1048.69" direction="ltr" writing-mode="lr-tb" x="1165.41" y="1331.62">5</text><path d="M1225.87 414.009C1422.77 414.009 1619.67 414.009 1816.57 414.009 1816.57 468.147 1816.57 522.285 1816.57 576.423 1679.1 576.423 1541.64 576.423 1404.17 576.423 1397.71 656.23 1391.25 736.037 1384.79 815.844 1442.67 809.777 1480.91 806.743 1499.52 806.743 1610.63 806.743 1699.91 834.279 1767.35 889.351 1834.79 944.422 1868.51 1017.7 1868.51 1109.17 1868.51 1219.78 1829.75 1306.35 1752.23 1368.89 1674.71 1431.43 1568.77 1462.7 1434.4 1462.7 1321.74 1462.7 1232.07 1446.37 1165.4 1413.7 1165.4 1354.66 1165.4 1295.62 1165.4 1236.58 1200.03 1260.38 1239.44 1278.58 1283.62 1291.19 1327.81 1303.79 1371.09 1310.09 1413.47 1310.09 1486.34 1310.09 1543.7 1294.22 1585.56 1262.48 1627.42 1230.75 1648.36 1186.64 1648.36 1130.17 1648.36 1071.37 1626.26 1028.55 1582.08 1001.71 1537.89 974.875 1470.06 961.457 1378.58 961.457 1316.57 961.457 1251.45 966.357 1183.23 976.158 1197.45 788.775 1211.66 601.392 1225.87 414.009Z" fill="#000000" fill-rule="evenodd" fill-opacity="1"/><text fill="#000000" fill-opacity="0" font-family="Arial,Arial_MSFontService,sans-serif" font-size="1048.69" direction="ltr" writing-mode="lr-tb" x="1165.4" y="1331.61">5</text></g></g></svg>