<svg width="798" height="1146" xmlns="http://www.w3.org/2000/svg" xmlns:xlink="http://www.w3.org/1999/xlink" xml:space="preserve" overflow="hidden"><g transform="translate(-3084 -366)"><g><path d="M3551.28 679.745C3524.68 731.515 3486.96 795.514 3438.12 871.744 3389.29 947.973 3338.93 1019.33 3287.04 1085.83 3375.12 1085.83 3463.2 1085.83 3551.28 1085.83 3551.28 950.467 3551.28 815.106 3551.28 679.745ZM3548 414.01C3605.34 414.01 3662.68 414.01 3720.02 414.01 3720.02 637.949 3720.02 861.889 3720.02 1085.83 3758.39 1085.83 3796.76 1085.83 3835.13 1085.83 3835.13 1134.27 3835.13 1182.72 3835.13 1231.16 3796.76 1231.16 3758.39 1231.16 3720.02 1231.16 3720.02 1308.34 3720.02 1385.52 3720.02 1462.7 3663.77 1462.7 3607.52 1462.7 3551.28 1462.7 3551.28 1385.52 3551.28 1308.34 3551.28 1231.16 3411.53 1231.16 3271.78 1231.16 3132.03 1231.16 3132.03 1180.11 3132.03 1129.05 3132.03 1077.99 3219.67 968.753 3300.99 854.646 3375.99 735.67 3450.99 616.695 3508.33 509.475 3548 414.01Z" stroke="#595959" stroke-width="92" stroke-linecap="butt" stroke-linejoin="round" stroke-miterlimit="10" stroke-opacity="1" fill="#000000" fill-rule="evenodd" fill-opacity="1"/><text fill="#000000" fill-opacity="0" font-family="Arial,Arial_MSFontService,sans-serif" font-size="1048.69" direction="ltr" writing-mode="lr-tb" x="3132.03" y="1331.61">4</text><path d="M3551.27 679.745C3524.68 731.514 3486.96 795.514 3438.12 871.743 3389.29 947.973 3338.93 1019.33 3287.04 1085.83 3375.12 1085.83 3463.2 1085.83 3551.27 1085.83 3551.27 950.467 3551.27 815.106 3551.27 679.745ZM3548 414.01C3605.34 414.01 3662.68 414.01 3720.02 414.01 3720.02 637.949 3720.02 861.888 3720.02 1085.83 3758.39 1085.83 3796.76 1085.83 3835.13 1085.83 3835.13 1134.27 3835.13 1182.72 3835.13 1231.16 3796.76 1231.16 3758.39 1231.16 3720.02 1231.16 3720.02 1308.34 3720.02 1385.52 3720.02 1462.7 3663.77 1462.7 3607.52 1462.7 3551.27 1462.7 3551.27 1385.52 3551.27 1308.34 3551.27 1231.16 3411.53 1231.16 3271.78 1231.16 3132.03 1231.16 3132.03 1180.11 3132.03 1129.05 3132.03 1077.99 3219.67 968.752 3300.99 854.645 3375.99 735.67 3450.99 616.695 3508.33 509.475 3548 414.01Z" fill="#000000" fill-rule="evenodd" fill-opacity="1"/><text fill="#000000" fill-opacity="0" font-family="Arial,Arial_MSFontService,sans-serif" font-size="1048.69" direction="ltr" writing-mode="lr-tb" x="3132.03" y="1331.61">4</text></g></g></svg>