<svg width="756" height="1146" xmlns="http://www.w3.org/2000/svg" xmlns:xlink="http://www.w3.org/1999/xlink" xml:space="preserve" overflow="hidden"><g transform="translate(-197 -366)"><g><path d="M737.178 414.011C792.217 414.011 847.256 414.011 902.295 414.011 902.295 763.575 902.295 1113.14 902.295 1462.7 815.046 1462.7 727.796 1462.7 640.546 1462.7 640.546 1192.35 640.546 922 640.546 651.649 611.15 671.744 569.558 690.437 515.77 707.728 461.981 725.02 406.004 736.236 347.837 741.376 347.837 683.661 347.837 625.945 347.837 568.23 485.435 537.386 615.216 485.98 737.178 414.011Z" stroke="#595959" stroke-width="92" stroke-linecap="butt" stroke-linejoin="round" stroke-miterlimit="10" stroke-opacity="1" fill="#000000" fill-rule="evenodd" fill-opacity="1"/><text fill="#000000" fill-opacity="0" font-family="Arial,Arial_MSFontService,sans-serif" font-size="1048.69" direction="ltr" writing-mode="lr-tb" x="347.837" y="1331.62">1</text><path d="M737.179 414.011C792.218 414.011 847.257 414.011 902.297 414.011 902.297 763.575 902.297 1113.14 902.297 1462.7 815.047 1462.7 727.797 1462.7 640.547 1462.7 640.547 1192.35 640.547 922 640.547 651.649 611.151 671.744 569.559 690.438 515.77 707.729 461.982 725.02 406.004 736.236 347.838 741.377 347.838 683.661 347.838 625.946 347.838 568.23 485.436 537.387 615.216 485.98 737.179 414.011Z" fill="#000000" fill-rule="evenodd" fill-opacity="1"/><text fill="#000000" fill-opacity="0" font-family="Arial,Arial_MSFontService,sans-serif" font-size="1048.69" direction="ltr" writing-mode="lr-tb" x="347.838" y="1331.62">1</text></g></g></svg>