<svg width="802" height="1146" xmlns="http://www.w3.org/2000/svg" xmlns:xlink="http://www.w3.org/1999/xlink" xml:space="preserve" overflow="hidden"><g transform="translate(-2080 -366)"><g><path d="M2489.11 943.868C2443.03 943.868 2405.44 959.831 2376.35 991.755 2347.25 1023.68 2332.71 1063.76 2332.71 1111.99 2332.71 1166.65 2346.91 1213.74 2375.3 1253.24 2403.69 1292.74 2441.86 1312.49 2489.81 1312.49 2536.82 1312.49 2574.06 1294.81 2601.52 1259.44 2628.99 1224.07 2642.72 1179.51 2642.72 1125.77 2642.72 1004.5 2591.52 943.868 2489.11 943.868ZM2584.07 414.01C2662.27 414.01 2722.55 423.427 2764.91 442.26 2764.91 496.923 2764.91 551.585 2764.91 606.247 2713.24 577.768 2656.68 563.528 2595.24 563.528 2512.85 563.528 2447.33 596.486 2398.69 662.403 2350.05 728.319 2325.73 812.724 2325.73 915.618 2327.12 915.618 2328.52 915.618 2329.92 915.618 2378.79 837.07 2452.57 797.796 2551.25 797.796 2637.83 797.796 2706.72 826.849 2757.92 884.957 2809.13 943.064 2834.73 1018.74 2834.73 1111.99 2834.73 1214.42 2802.15 1298.48 2736.98 1364.17 2671.81 1429.86 2589.19 1462.7 2489.11 1462.7 2373.21 1462.7 2284.65 1420.67 2223.44 1336.61 2162.23 1252.55 2131.62 1138.17 2131.62 993.478 2131.62 822.141 2171.65 682.729 2251.72 575.241 2331.78 467.754 2442.56 414.01 2584.07 414.01Z" stroke="#595959" stroke-width="92" stroke-linecap="butt" stroke-linejoin="round" stroke-miterlimit="10" stroke-opacity="1" fill="#000000" fill-rule="evenodd" fill-opacity="1"/><text fill="#000000" fill-opacity="0" font-family="Arial,Arial_MSFontService,sans-serif" font-size="1048.69" direction="ltr" writing-mode="lr-tb" x="2131.62" y="1331.62">6</text><path d="M2489.11 943.867C2443.03 943.867 2405.44 959.829 2376.35 991.754 2347.25 1023.68 2332.71 1063.76 2332.71 1111.99 2332.71 1166.65 2346.91 1213.73 2375.3 1253.24 2403.69 1292.74 2441.86 1312.49 2489.81 1312.49 2536.82 1312.49 2574.06 1294.81 2601.52 1259.44 2628.99 1224.07 2642.72 1179.51 2642.72 1125.77 2642.72 1004.5 2591.52 943.867 2489.11 943.867ZM2584.07 414.009C2662.27 414.009 2722.55 423.426 2764.91 442.259 2764.91 496.922 2764.91 551.584 2764.91 606.246 2713.24 577.767 2656.68 563.527 2595.24 563.527 2512.85 563.527 2447.33 596.485 2398.69 662.402 2350.05 728.318 2325.73 812.723 2325.73 915.617 2327.12 915.617 2328.52 915.617 2329.92 915.617 2378.79 837.069 2452.57 797.794 2551.25 797.794 2637.83 797.794 2706.72 826.848 2757.92 884.956 2809.13 943.063 2834.73 1018.74 2834.73 1111.99 2834.73 1214.42 2802.15 1298.48 2736.98 1364.17 2671.81 1429.86 2589.19 1462.7 2489.11 1462.7 2373.2 1462.7 2284.65 1420.67 2223.44 1336.61 2162.23 1252.55 2131.62 1138.17 2131.62 993.477 2131.62 822.14 2171.65 682.728 2251.71 575.24 2331.78 467.753 2442.56 414.009 2584.07 414.009Z" fill="#000000" fill-rule="evenodd" fill-opacity="1"/><text fill="#000000" fill-opacity="0" font-family="Arial,Arial_MSFontService,sans-serif" font-size="1048.69" direction="ltr" writing-mode="lr-tb" x="2131.62" y="1331.61">6</text></g></g></svg>