<svg width="802" height="1146" xmlns="http://www.w3.org/2000/svg" xmlns:xlink="http://www.w3.org/1999/xlink" xml:space="preserve" overflow="hidden"><g transform="translate(-2080 -366)"><g><path d="M2447.36 414.01C2551.59 414.01 2636.3 436.059 2701.5 480.156 2766.7 524.254 2799.3 585.347 2799.3 663.436 2799.3 795.269 2724.09 878.87 2573.66 914.24 2573.66 915.159 2573.66 916.078 2573.66 916.996 2652.21 924.346 2715.36 950.184 2763.11 994.511 2810.86 1038.84 2834.73 1092.47 2834.73 1155.4 2834.73 1251.4 2795.84 1326.62 2718.06 1381.05 2640.28 1435.49 2537.21 1462.7 2408.86 1462.7 2295.91 1462.7 2203.5 1445.25 2131.62 1410.34 2131.62 1352.23 2131.62 1294.12 2131.62 1236.01 2208.12 1287 2296.42 1312.49 2396.54 1312.49 2462.25 1312.49 2515.13 1299.06 2555.18 1272.19 2595.23 1245.32 2615.25 1206.84 2615.25 1156.78 2615.25 1051.59 2526.43 998.99 2348.79 998.99 2315.42 998.99 2282.05 998.99 2248.68 998.99 2248.68 948.921 2248.68 898.852 2248.68 848.783 2279.74 848.783 2310.8 848.783 2341.86 848.783 2501.02 848.783 2580.59 799.633 2580.59 701.332 2580.59 609.463 2519.5 563.528 2397.31 563.528 2320.81 563.528 2246.62 586.036 2174.75 631.052 2174.75 577.079 2174.75 523.105 2174.75 469.132 2251.76 432.384 2342.63 414.01 2447.36 414.01Z" stroke="#595959" stroke-width="92" stroke-linecap="butt" stroke-linejoin="round" stroke-miterlimit="10" stroke-opacity="1" fill="#000000" fill-rule="evenodd" fill-opacity="1"/><text fill="#000000" fill-opacity="0" font-family="Arial,Arial_MSFontService,sans-serif" font-size="1048.69" direction="ltr" writing-mode="lr-tb" x="2131.62" y="1331.62">3</text><path d="M2447.36 414.01C2551.59 414.01 2636.3 436.059 2701.5 480.156 2766.7 524.253 2799.3 585.347 2799.3 663.436 2799.3 795.269 2724.09 878.87 2573.66 914.24 2573.66 915.159 2573.66 916.077 2573.66 916.996 2652.21 924.346 2715.36 950.184 2763.11 994.511 2810.86 1038.84 2834.73 1092.47 2834.73 1155.4 2834.73 1251.4 2795.84 1326.62 2718.06 1381.05 2640.28 1435.49 2537.21 1462.7 2408.86 1462.7 2295.91 1462.7 2203.5 1445.25 2131.62 1410.34 2131.62 1352.23 2131.62 1294.12 2131.62 1236.01 2208.12 1287 2296.42 1312.49 2396.54 1312.49 2462.25 1312.49 2515.13 1299.06 2555.18 1272.19 2595.23 1245.31 2615.25 1206.84 2615.25 1156.78 2615.25 1051.58 2526.43 998.99 2348.79 998.99 2315.42 998.99 2282.05 998.99 2248.68 998.99 2248.68 948.921 2248.68 898.852 2248.68 848.783 2279.74 848.783 2310.8 848.783 2341.86 848.783 2501.02 848.783 2580.59 799.633 2580.59 701.332 2580.59 609.463 2519.5 563.528 2397.31 563.528 2320.81 563.528 2246.62 586.036 2174.75 631.052 2174.75 577.078 2174.75 523.105 2174.75 469.132 2251.76 432.384 2342.63 414.01 2447.36 414.01Z" fill="#000000" fill-rule="evenodd" fill-opacity="1"/><text fill="#000000" fill-opacity="0" font-family="Arial,Arial_MSFontService,sans-serif" font-size="1048.69" direction="ltr" writing-mode="lr-tb" x="2131.62" y="1331.61">3</text></g></g></svg>