<svg width="797" height="1146" xmlns="http://www.w3.org/2000/svg" xmlns:xlink="http://www.w3.org/1999/xlink" xml:space="preserve" overflow="hidden"><g transform="translate(-1118 -366)"><g><path d="M1508.27 414.011C1623.07 414.011 1711.8 439.948 1774.49 491.822 1837.17 543.696 1868.51 615.431 1868.51 707.028 1868.51 754.229 1860.33 796.055 1843.97 832.507 1827.6 868.958 1805.96 902.022 1779.02 931.698 1752.08 961.373 1721.12 988.946 1686.13 1014.42 1651.14 1039.88 1615.26 1065.24 1578.51 1090.47 1510.54 1137.21 1461.83 1177.16 1432.37 1210.34 1402.92 1243.52 1388.19 1272.73 1388.19 1297.97 1545.28 1297.97 1702.36 1297.97 1859.45 1297.97 1859.45 1352.88 1859.45 1407.79 1859.45 1462.7 1628.1 1462.7 1396.75 1462.7 1165.41 1462.7 1165.41 1436.77 1165.41 1410.83 1165.41 1384.89 1165.41 1329.28 1175.6 1277.99 1195.99 1231.02 1216.38 1184.06 1245.58 1140.13 1283.6 1099.24 1321.61 1058.34 1401.54 995.605 1523.38 911.018 1570.71 878.305 1604.69 846.994 1625.33 817.085 1645.98 787.175 1656.3 753.761 1656.3 716.842 1656.3 671.044 1641.82 635.41 1612.87 609.94 1583.92 584.471 1538.99 571.736 1478.07 571.736 1382.91 571.736 1291.53 606.786 1203.92 676.885 1203.92 618.235 1203.92 559.585 1203.92 500.935 1293.54 442.986 1394.99 414.011 1508.27 414.011Z" stroke="#595959" stroke-width="92" stroke-linecap="butt" stroke-linejoin="round" stroke-miterlimit="10" stroke-opacity="1" fill="#000000" fill-rule="evenodd" fill-opacity="1"/><text fill="#000000" fill-opacity="0" font-family="Arial,Arial_MSFontService,sans-serif" font-size="1048.69" direction="ltr" writing-mode="lr-tb" x="1165.41" y="1331.62">2</text><path d="M1508.27 414.011C1623.07 414.011 1711.81 439.948 1774.49 491.822 1837.17 543.695 1868.51 615.431 1868.51 707.028 1868.51 754.228 1860.33 796.054 1843.97 832.506 1827.61 868.958 1805.96 902.022 1779.02 931.697 1752.08 961.373 1721.12 988.945 1686.13 1014.41 1651.14 1039.88 1615.26 1065.24 1578.51 1090.47 1510.54 1137.21 1461.83 1177.16 1432.37 1210.34 1402.92 1243.52 1388.19 1272.73 1388.19 1297.97 1545.28 1297.97 1702.37 1297.97 1859.45 1297.97 1859.45 1352.88 1859.45 1407.79 1859.45 1462.7 1628.1 1462.7 1396.75 1462.7 1165.41 1462.7 1165.41 1436.77 1165.41 1410.83 1165.41 1384.89 1165.41 1329.28 1175.6 1277.99 1195.99 1231.02 1216.38 1184.06 1245.58 1140.13 1283.6 1099.24 1321.61 1058.34 1401.54 995.605 1523.38 911.018 1570.71 878.305 1604.69 846.994 1625.33 817.084 1645.98 787.175 1656.3 753.761 1656.3 716.842 1656.3 671.043 1641.82 635.409 1612.87 609.94 1583.92 584.47 1538.99 571.735 1478.07 571.735 1382.91 571.735 1291.53 606.785 1203.92 676.885 1203.92 618.235 1203.92 559.585 1203.92 500.935 1293.54 442.986 1394.99 414.011 1508.27 414.011Z" fill="#000000" fill-rule="evenodd" fill-opacity="1"/><text fill="#000000" fill-opacity="0" font-family="Arial,Arial_MSFontService,sans-serif" font-size="1048.69" direction="ltr" writing-mode="lr-tb" x="1165.41" y="1331.62">2</text></g></g></svg>